<svg id="Layer_1" data-name="Layer 1"
    xmlns="http://www.w3.org/2000/svg" viewBox="0 0 268.23 276">
    <defs>
        <style>.cls-1{fill:#FFAB7E;}.cls-2{fill:#1a1e24;}.cls-3{fill:#291e56;}.cls-4{fill:#000000;}</style>
    </defs>
    <path class="cls-1" d="M247.15,175.12,171.24,251l-1,1c-.66.62-1.33,1.22-2,1.81l-.73.61-.18.15-.48.38c-1.05.84-2.13,1.64-3.23,2.38l0,0a52.41,52.41,0,0,1-18.06,7.78q-1.52.33-3,.57h0a53,53,0,0,1-13.95.37l-1.38-.17c-.59-.08-1.18-.16-1.77-.27s-1.47-.26-2.21-.41a52.27,52.27,0,0,1-18.06-7.6c-.78-.52-1.55-1.06-2.3-1.62-1-.74-2-1.52-2.91-2.33l-.9-.8c-.32-.28-.63-.58-.94-.87l-.89-.86L97,251l-1.46-1.47-2.83-2.82-.54-.54L65.92,220,21.07,175.12a52.51,52.51,0,0,1,0-74.25L97,25a52.51,52.51,0,0,1,74.25,0l75.91,75.91A52.51,52.51,0,0,1,247.15,175.12Z"/>
    <rect class="cls-2" x="136.05" y="254.47" width="2.93" height="2.93"/>
    <rect class="cls-2" x="142.2" y="254.47" width="2.93" height="2.93"/>
    <rect class="cls-2" x="139.12" y="217.68" width="2.93" height="2.93"/>
    <rect class="cls-2" x="148.35" y="254.47" width="2.93" height="2.93"/>
    <rect class="cls-2" x="154.5" y="254.47" width="2.93" height="2.93"/>
    <rect class="cls-2" x="160.65" y="254.47" width="2.93" height="2.93"/>
    <path class="cls-2" d="M167.46,254.47l-.18.15-.48.38v-.53Z"/>
    <rect class="cls-2" x="166.8" y="248.42" width="2.93" height="2.93"/>
    <rect class="cls-2" x="136.05" y="180.8" width="2.93" height="2.93"/>
    <rect class="cls-2" x="142.2" y="180.8" width="2.93" height="2.93"/>
    <rect class="cls-2" x="148.35" y="180.8" width="2.93" height="2.93"/>
    <rect class="cls-2" x="154.5" y="180.8" width="2.93" height="2.93"/>
    <rect class="cls-2" x="160.65" y="180.8" width="2.93" height="2.93"/>
    <rect class="cls-2" x="166.8" y="180.8" width="2.93" height="2.93"/>
    <rect class="cls-2" x="166.8" y="187.21" width="2.93" height="2.93"/>
    <path class="cls-2" d="M186.29,197.88H150.13a3.69,3.69,0,0,0-3.69,3.69v27.84a3.69,3.69,0,0,0,3.69,3.69h16.62v4.61h-4.64v2.92h12.2v-2.92h-4.64V233.1h16.62a3.69,3.69,0,0,0,3.69-3.69V201.57A3.69,3.69,0,0,0,186.29,197.88Zm.28,32.22H149.85v-3.23h36.72Zm0-6.15H149.85V200.82h36.72Z"/>
    <rect class="cls-2" x="176.17" y="203.95" width="2.83" height="16.66"/>
    <rect class="cls-2" x="169.92" y="208.15" width="2.83" height="12.46"/>
    <rect class="cls-2" x="163.67" y="212.58" width="2.83" height="8.03"/>
    <rect class="cls-2" x="157.42" y="216.52" width="2.83" height="4.09"/>
    <rect class="cls-2" x="132.97" y="217.68" width="2.93" height="2.93"/>
    <path class="cls-2" d="M106.54,193.76l1.28-.92c.47-.33.93-.66,1.37-1a41,41,0,0,1-7.8-8.25h16.74a25.12,25.12,0,0,0,2.19-3.2H99.6v.12A19.33,19.33,0,0,1,98,168.9l-3.15-.35a23.35,23.35,0,0,0,1.58,12.63C98.29,185.43,101.62,189.58,106.54,193.76Z"/>
    <path class="cls-2" d="M126.75,228.78a22.46,22.46,0,0,1-1.54,2.75,44.4,44.4,0,0,1-8.66,9.35c-.74.63-1.52,1.27-2.35,1.93s-1.69,1.32-2.61,2l-.64.47c-.63.46-1.23.93-1.8,1.39a37.23,37.23,0,0,0-7.39,7.8h16a25.93,25.93,0,0,1,2.2,3.2H105.08c-.78-.52-1.55-1.06-2.3-1.62-1-.74-2-1.52-2.91-2.33l-.9-.8a38.91,38.91,0,0,1,7.62-8.24c.75-.62,1.54-1.25,2.38-1.87l.11-.07c.88-.65,1.71-1.28,2.5-1.9s1.63-1.29,2.37-1.9a48.19,48.19,0,0,0,7.36-7.41H105.72a27.34,27.34,0,0,1-2.49-3.19h20.16a16.28,16.28,0,0,0,2-7.59H100.72c0-.52,0-1,0-1.5s0-1.13.08-1.7h24.51a19.42,19.42,0,0,0-1.95-7.54H103.15a23.09,23.09,0,0,1,2.35-3.2h15.93a37.19,37.19,0,0,0-7.35-7.31c.9-.66,1.77-1.31,2.6-2A34.17,34.17,0,0,1,125.91,208a23.93,23.93,0,0,1,2.65,11.12A20.09,20.09,0,0,1,126.75,228.78Z"/>
    <path class="cls-2" d="M125.18,168.9a19.36,19.36,0,0,1-1.55,11.5,23.73,23.73,0,0,1-1.85,3.2,41,41,0,0,1-7.8,8.25q-1.12.93-2.4,1.89c-.65.5-1.34,1-2.06,1.51l-.6.43c-.85.62-1.66,1.23-2.43,1.85A34.17,34.17,0,0,0,97.26,208a23.75,23.75,0,0,0-2.64,11.12c-.14,6,.78,12.22,12,21.77l.7-.53c.66-.48,1.29-1,1.89-1.42a47.6,47.6,0,0,1-7.35-7.4,23.13,23.13,0,0,1-2.09-3.2,17.09,17.09,0,0,1-2-9.15,20.74,20.74,0,0,1,2-9.17,22.23,22.23,0,0,1,2-3.2,36.31,36.31,0,0,1,7.34-7.31c.71-.55,1.46-1.1,2.26-1.67l.24-.17q1.39-1,2.67-2t2.37-1.92c4.92-4.18,8.25-8.33,10.12-12.59a23.24,23.24,0,0,0,1.58-12.63Z"/>
    <path class="cls-2" d="M125.18,254.47a37.85,37.85,0,0,0-8.6-9.8c-.81.66-1.67,1.32-2.56,2a36.24,36.24,0,0,1,7.39,7.8,25.12,25.12,0,0,1,1.89,3.2,24.17,24.17,0,0,1,1,2.39,15.71,15.71,0,0,1,1,6.35h3.17a19.63,19.63,0,0,0-1.74-8.82A25.28,25.28,0,0,0,125.18,254.47Z"/>
    <path class="cls-3" d="M220.37,164.59v7.2H167.55c0-8.85-5.81-17.15-13.81-19.91.17-.23,7.51-9.83,7.42-21.59s-.6-15.77-3.38-25.1a64.36,64.36,0,0,0-8.63,25.1c-1.46,13.79,4.42,21.38,4.58,21.59a17.37,17.37,0,0,0-11.15-.08c.21-1,2-10.61-4.44-22.26a60.8,60.8,0,0,0-16.56-19.19c.92,9.47,0,13.89,5,24.7,4.71,10.24,14.88,16.19,15.93,16.78-8.06,2.69-13.91,11-13.91,19.87v.09H47.85v-7.2H87.73s15.4-38-14.73-104.11H195.15C165,126.54,180.42,164.59,180.42,164.59Z"/>
    <circle class="cls-3" cx="141.55" cy="163.41" r="4.52"/>
    <circle class="cls-3" cx="154.71" cy="163.41" r="4.52"/>
    <path class="cls-4" d="M142.57,151.8a.45.45,0,0,0,0,.08l-.09,0Z"/>
</svg>