<svg width="211.524" height="41.371" viewBox="0 0 211.524 41.371" xmlns="http://www.w3.org/2000/svg"><g id="svgGroup" stroke-linecap="round" fill-rule="evenodd" font-size="9pt" stroke="#eb6254" stroke-width="0.25mm" fill="#eb6254" style="stroke:#eb6254;stroke-width:0.25mm;fill:#eb6254"><path d="M 29.026 0 L 29.355 0.088 L 30.059 0 A 1.554 1.554 0 0 1 30.183 0.005 Q 30.383 0.021 30.435 0.094 A 0.1 0.1 0 0 1 30.454 0.154 Q 30.861 0.096 30.909 0.021 A 0.038 0.038 0 0 0 30.916 0 A 27.396 27.396 0 0 1 31.712 0.08 Q 32.803 0.206 33.308 0.379 A 2.268 2.268 0 0 1 33.354 0.396 L 33.53 0.308 A 14.52 14.52 0 0 1 35.072 0.668 Q 36.898 1.21 37.771 2.131 A 4.656 4.656 0 0 1 38.342 3.107 A 3.499 3.499 0 0 1 38.628 4.482 A 5.75 5.75 0 0 1 37.97 6.135 Q 37.187 7.498 35.59 8.958 A 19.908 19.908 0 0 1 35.486 9.053 A 14.971 14.971 0 0 1 34.157 10.021 Q 33.205 10.642 32.014 11.25 Q 31.185 11.773 28.965 12.71 A 88.165 88.165 0 0 1 27.927 13.14 L 27.861 13.293 A 19.007 19.007 0 0 1 35.969 17.622 A 1.982 1.982 0 0 1 36.335 18.019 Q 36.887 18.781 37.463 20.544 L 37.375 20.698 Q 37.585 21.366 37.613 21.636 A 0.724 0.724 0 0 1 37.617 21.709 A 2.722 2.722 0 0 1 37.474 22.524 Q 37.227 23.302 36.553 24.343 A 18.426 18.426 0 0 1 35.793 25.422 A 6.807 6.807 0 0 1 34.787 26.268 Q 33.633 27.079 31.74 27.909 A 36.032 36.032 0 0 1 30.366 28.477 L 27.466 29.026 L 27.07 28.872 A 3.54 3.54 0 0 1 26.444 29.072 Q 25.595 29.268 24.236 29.268 L 23.928 29.114 A 0.572 0.572 0 0 0 23.879 29.117 Q 23.737 29.13 23.291 29.202 L 22.588 29.114 A 8.296 8.296 0 0 1 22.383 29.152 Q 22.192 29.185 22.063 29.196 A 1.354 1.354 0 0 1 21.951 29.202 Q 21.665 29.026 21.248 29.026 Q 21.174 29.026 21.054 29.088 A 1.251 1.251 0 0 0 21.006 29.114 A 18.286 18.286 0 0 1 20.513 29.024 Q 19.536 28.831 19.358 28.652 Q 19.292 28.652 18.875 28.718 A 66.536 66.536 0 0 1 18.47 28.595 Q 17.728 28.366 17.503 28.272 A 1.2 1.2 0 0 1 17.468 28.257 L 17.38 28.257 L 17.161 28.411 L 17.073 28.411 A 0.968 0.968 0 0 1 16.938 28.402 Q 16.677 28.365 16.677 28.169 L 16.128 28.169 A 0.673 0.673 0 0 0 16.091 27.937 Q 15.982 27.64 15.552 27.621 A 1.372 1.372 0 0 0 15.491 27.62 L 15.491 27.532 L 15.029 27.532 A 0.745 0.745 0 0 1 14.821 27.5 Q 14.732 27.474 14.636 27.427 A 1.526 1.526 0 0 1 14.546 27.378 A 0.524 0.524 0 0 1 14.3 27.463 A 0.659 0.659 0 0 1 14.238 27.466 Q 14.128 27.268 12.744 26.829 A 0.142 0.142 0 0 0 12.669 26.714 Q 12.472 26.58 11.76 26.529 A 9.262 9.262 0 0 0 11.646 26.521 Q 11.404 25.972 10.151 25.73 A 0.082 0.082 0 0 0 10.133 25.683 Q 10.089 25.623 9.945 25.542 A 2.338 2.338 0 0 0 9.844 25.488 L 9.668 25.488 Q 7.778 28.015 7.075 29.509 A 0.141 0.141 0 0 0 6.997 29.549 Q 6.797 29.711 6.284 30.542 Q 5.713 30.806 5.186 32.344 A 0.198 0.198 0 0 0 5.085 32.405 Q 4.782 32.675 3.754 34.143 A 71.102 71.102 0 0 0 3.691 34.233 Q 3.516 34.233 1.802 36.035 A 0.458 0.458 0 0 0 1.57 36.106 Q 1.311 36.258 1.011 36.738 L 0.308 36.738 L 0.308 36.584 Q 0.308 36.419 1.011 36.019 A 9.851 9.851 0 0 1 1.099 35.969 L 1.011 35.574 A 1.891 1.891 0 0 0 1.443 35.118 Q 1.587 34.908 1.702 34.641 A 3.818 3.818 0 0 0 1.802 34.387 A 8.158 8.158 0 0 0 2.057 34.286 Q 2.473 34.112 2.593 33.992 L 2.527 33.838 L 2.527 33.75 A 3.004 3.004 0 0 0 2.809 33.552 Q 3.09 33.328 3.183 33.11 A 0.547 0.547 0 0 0 3.23 32.893 L 2.988 32.893 L 2.988 32.651 A 0.291 0.291 0 0 0 3.208 32.548 Q 3.297 32.451 3.361 32.264 A 1.631 1.631 0 0 0 3.384 32.19 A 0.13 0.13 0 0 0 3.478 32.141 Q 3.568 32.044 3.644 31.755 A 3.799 3.799 0 0 0 3.691 31.553 Q 4.065 31.037 4.194 30.939 A 0.09 0.09 0 0 1 4.241 30.916 A 0.127 0.127 0 0 0 4.245 30.95 Q 4.26 31.003 4.329 31.003 A 1.265 1.265 0 0 1 4.277 31.148 Q 4.214 31.295 4.128 31.357 A 0.224 0.224 0 0 1 4.021 31.399 A 1.324 1.324 0 0 1 4.05 31.472 Q 4.087 31.575 4.087 31.641 L 4.175 31.641 A 4.114 4.114 0 0 0 4.389 31.43 Q 4.724 31.073 4.724 30.85 A 0.667 0.667 0 0 0 4.674 30.722 Q 4.58 30.542 4.395 30.542 L 4.395 30.454 A 10.857 10.857 0 0 0 5.584 28.711 A 12.463 12.463 0 0 0 5.823 28.257 A 2.033 2.033 0 0 0 6.054 28.187 Q 6.288 28.101 6.387 27.977 A 0.318 0.318 0 0 0 6.46 27.773 L 6.372 27.466 Q 6.416 27.048 7.471 26.279 A 0.275 0.275 0 0 1 7.486 26.218 Q 7.519 26.135 7.604 26.126 A 0.205 0.205 0 0 1 7.625 26.125 L 7.559 25.972 L 7.559 25.818 A 0.139 0.139 0 0 0 7.583 25.815 Q 7.652 25.801 7.866 25.73 L 7.778 25.181 L 8.174 25.181 L 8.174 25.027 A 2.006 2.006 0 0 0 8.048 24.647 Q 7.955 24.444 7.823 24.314 A 0.812 0.812 0 0 0 7.229 24.082 A 0.913 0.913 0 0 1 6.744 23.933 Q 6.4 23.72 6.064 23.203 A 2.634 2.634 0 0 1 5.659 23.035 Q 4.94 22.675 3.691 21.709 L 3.625 21.709 A 0.127 0.127 0 0 0 3.591 21.713 Q 3.538 21.729 3.538 21.797 Q 3.407 21.797 2.815 21.05 A 22.307 22.307 0 0 1 2.593 20.764 A 0.636 0.636 0 0 1 2.124 20.554 Q 1.938 20.362 1.802 19.995 Q 1.89 19.841 1.89 19.666 L 1.494 19.666 Q 1.362 19.27 1.099 19.27 L 1.187 18.875 A 2.213 2.213 0 0 0 1.067 18.809 Q 0.95 18.75 0.867 18.731 A 0.332 0.332 0 0 0 0.791 18.721 L 0.791 18.501 Q 1.099 18.501 1.099 18.325 A 0.371 0.371 0 0 1 0.875 18.242 Q 0.665 18.085 0.465 17.631 A 3.796 3.796 0 0 1 0.461 17.622 A 1.718 1.718 0 0 1 0.51 17.518 Q 0.59 17.361 0.661 17.325 A 0.093 0.093 0 0 1 0.703 17.314 Q 1.055 18.04 1.802 18.809 Q 1.802 19.706 2.793 19.751 A 2.37 2.37 0 0 0 2.9 19.753 L 2.9 19.819 L 2.747 20.061 A 0.275 0.275 0 0 0 2.762 20.123 Q 2.795 20.205 2.88 20.214 A 0.205 0.205 0 0 0 2.9 20.215 L 3.142 20.215 A 0.172 0.172 0 0 0 3.174 20.212 Q 3.23 20.202 3.23 20.149 A 0.793 0.793 0 0 1 3.87 20.464 A 1.371 1.371 0 0 1 4.021 20.698 A 6.959 6.959 0 0 1 4.529 20.99 Q 5.242 21.437 6.284 22.258 A 25.99 25.99 0 0 0 7.085 22.716 Q 8.041 23.24 8.657 23.445 L 8.723 23.445 A 0.068 0.068 0 0 0 8.747 23.439 Q 8.807 23.414 8.965 23.291 L 9.053 23.291 L 9.053 23.599 A 0.524 0.524 0 0 0 9.299 23.684 A 0.659 0.659 0 0 0 9.36 23.687 Q 9.448 23.599 9.514 22.654 L 9.207 22.896 L 9.207 22.742 Q 9.207 22.544 9.514 22.347 A 2.028 2.028 0 0 1 9.668 22.258 A 0.192 0.192 0 0 0 9.689 22.257 Q 9.736 22.252 9.75 22.223 A 0.069 0.069 0 0 0 9.756 22.192 L 9.91 22.258 L 9.844 22.434 A 0.149 0.149 0 0 1 9.734 22.39 Q 9.69 22.346 9.668 22.258 A 0.542 0.542 0 0 0 9.666 22.208 Q 9.658 22.123 9.62 22.108 A 0.048 0.048 0 0 0 9.602 22.105 L 10.459 20.61 Q 10.679 20.149 11.008 20.149 L 10.942 19.995 Q 11.008 19.358 11.338 19.358 A 1.523 1.523 0 0 0 11.401 19.392 Q 11.497 19.441 11.548 19.445 A 0.113 0.113 0 0 0 11.558 19.446 A 2.208 2.208 0 0 0 11.661 19.305 Q 11.753 19.166 11.784 19.06 A 0.35 0.35 0 0 0 11.799 18.962 Q 11.618 18.896 11.573 18.843 A 0.054 0.054 0 0 1 11.558 18.809 Q 11.558 18.677 11.846 18.081 A 18.773 18.773 0 0 1 11.953 17.864 L 12.283 17.952 A 1.523 1.523 0 0 1 12.346 17.917 Q 12.442 17.868 12.493 17.864 A 0.113 0.113 0 0 1 12.502 17.864 L 12.502 17.71 L 12.349 17.468 L 12.349 17.314 A 0.576 0.576 0 0 0 12.703 17.181 Q 13.012 16.943 13.293 16.282 L 13.535 16.282 L 13.535 16.062 L 13.228 16.062 Q 13.063 16.062 13.052 16.332 A 0.979 0.979 0 0 0 13.052 16.37 L 12.986 16.37 A 0.297 0.297 0 0 0 12.861 16.139 Q 12.643 15.959 12.043 15.857 A 6.218 6.218 0 0 0 11.799 15.82 A 0.172 0.172 0 0 0 11.797 15.789 Q 11.786 15.732 11.733 15.732 L 11.799 15.337 L 11.799 15.271 L 11.646 15.271 L 11.646 15.183 L 11.799 14.941 L 11.799 14.875 L 11.646 14.875 A 0.129 0.129 0 0 0 11.523 14.949 Q 11.494 15.004 11.492 15.1 A 0.719 0.719 0 0 0 11.492 15.117 L 11.25 15.117 A 0.963 0.963 0 0 1 11.521 14.486 Q 12.163 13.747 14.326 13.052 A 3.557 3.557 0 0 1 14.511 12.782 Q 14.835 12.357 15.106 12.349 A 0.354 0.354 0 0 1 15.117 12.349 L 14.941 12.129 L 15.732 11.558 L 15.732 11.492 L 15.667 11.492 L 15.271 11.558 L 15.732 10.613 A 1.672 1.672 0 0 0 15.995 10.271 Q 16.386 9.624 16.765 8.174 Q 17.087 7.938 18.641 4.213 A 163.94 163.94 0 0 0 18.721 4.021 A 0.402 0.402 0 0 1 18.668 4.018 Q 18.567 4.005 18.567 3.933 Q 15.146 5.103 11.106 7.468 A 66.095 66.095 0 0 0 9.294 8.569 A 54.609 54.609 0 0 0 7.648 9.728 Q 6.215 10.781 5.294 11.637 A 13.213 13.213 0 0 0 4.878 12.041 L 4.329 13.293 L 3.933 13.381 Q 3.311 13.381 3.077 12.864 A 1.401 1.401 0 0 1 2.988 12.59 Q 3.208 11.448 4.79 10.063 Q 6.35 8.965 6.68 8.35 A 29.278 29.278 0 0 1 7.705 7.658 Q 8.653 7.049 9.373 6.716 A 7.42 7.42 0 0 1 9.602 6.614 A 0.526 0.526 0 0 1 9.737 6.395 Q 10.096 6.009 11.361 5.446 A 18.885 18.885 0 0 1 11.404 5.427 L 11.558 5.427 L 12.107 5.515 L 12.195 5.361 A 0.292 0.292 0 0 0 12.188 5.295 Q 12.162 5.186 12.041 5.186 L 11.887 5.273 L 11.887 5.186 Q 13.407 4.127 14.409 3.811 A 2.96 2.96 0 0 1 14.941 3.691 A 0.136 0.136 0 0 1 15.008 3.584 Q 15.192 3.448 15.886 3.384 Q 15.886 3.01 19.27 1.978 A 20.426 20.426 0 0 1 20.113 1.641 Q 21.335 1.187 21.951 1.187 L 22.5 1.187 A 0.155 0.155 0 0 1 22.562 1.073 Q 22.731 0.921 23.369 0.793 A 7.196 7.196 0 0 1 23.379 0.791 L 23.752 0.857 A 4.857 4.857 0 0 1 24.38 0.666 Q 25.436 0.407 27.584 0.156 A 86.918 86.918 0 0 1 29.026 0 Z M 148.008 21.885 L 149.128 16.501 L 149.128 16.216 L 148.931 16.216 A 7.908 7.908 0 0 1 147.85 17.425 Q 147.133 18.066 146.354 18.367 A 3.915 3.915 0 0 1 144.932 18.633 A 4.591 4.591 0 0 1 144.101 18.404 Q 143.674 18.237 143.388 17.994 A 1.641 1.641 0 0 1 142.8 16.677 L 142.8 16.304 A 3.161 3.161 0 0 1 143.495 14.4 Q 144.702 12.778 148.008 11.272 A 11.179 11.179 0 0 0 148.245 11.239 Q 148.718 11.168 148.843 11.096 A 5.927 5.927 0 0 1 149.481 11.281 Q 150.623 11.689 150.623 12.393 A 0.172 0.172 0 0 1 150.757 12.472 Q 150.917 12.679 150.996 13.425 Q 150.996 15.163 150.441 18.248 A 77.311 77.311 0 0 1 150.073 20.149 A 7.787 7.787 0 0 0 150.782 19.649 A 5.965 5.965 0 0 0 151.37 19.116 A 8.699 8.699 0 0 1 151.684 18.807 Q 152.232 18.292 153.237 17.468 Q 154.269 16.436 154.789 15.963 A 12.514 12.514 0 0 1 154.874 15.886 Q 155.391 15.425 156.401 13.689 Q 157.366 12.907 157.712 13.104 A 0.307 0.307 0 0 1 157.83 13.228 Q 157.83 13.327 157.902 13.337 A 0.123 0.123 0 0 0 157.917 13.337 A 1.378 1.378 0 0 1 157.836 13.768 Q 157.591 14.499 156.61 15.743 A 46.062 46.062 0 0 1 155.185 17.46 A 62.739 62.739 0 0 1 153.523 19.292 A 69.694 69.694 0 0 0 152.163 20.413 Q 150.721 21.635 149.813 22.568 A 15.08 15.08 0 0 0 149.304 23.115 Q 148.373 26.93 147.68 28.326 A 3.088 3.088 0 0 1 147.349 28.872 Q 147.349 29.018 146.6 30.719 A 127.353 127.353 0 0 1 146.514 30.916 A 0.327 0.327 0 0 1 146.484 31.025 Q 146.357 31.34 145.679 32.322 Q 145.006 33.836 143.934 35.685 A 57.11 57.11 0 0 1 143.24 36.848 Q 141.68 39.397 139.713 40.54 A 9.023 9.023 0 0 1 138.944 40.941 Q 137.52 41.594 136.637 41.254 Q 135.527 40.825 135.45 39.122 A 5.837 5.837 0 0 1 135.445 38.859 Q 135.445 37.199 136.318 34.497 A 11.386 11.386 0 0 1 137.175 32.557 Q 138.41 30.298 140.933 27.488 A 54.644 54.644 0 0 1 142.982 25.506 Q 145.915 22.824 148.008 21.885 Z M 125.596 17.139 L 125.64 17.578 Q 125.659 18.041 126.016 18.097 A 0.68 0.68 0 0 0 126.123 18.105 L 126.277 18.105 A 2.43 2.43 0 0 0 127.115 17.873 Q 128.323 17.328 130.143 15.519 A 30.747 30.747 0 0 0 130.54 15.117 A 13.005 13.005 0 0 0 131.386 14.078 Q 131.834 13.469 132.275 12.744 L 132.363 12.92 Q 132.386 13.273 132.326 13.566 A 1.658 1.658 0 0 1 132.144 14.063 L 132.144 14.238 L 132.451 14.238 A 15.964 15.964 0 0 1 131.429 15.776 Q 130.847 16.556 130.122 17.358 Q 128.606 19.078 127.434 19.574 A 2.298 2.298 0 0 1 126.541 19.775 A 2.296 2.296 0 0 1 125.435 19.516 Q 124.95 19.255 124.608 18.733 A 3.518 3.518 0 0 1 124.321 18.193 A 10.25 10.25 0 0 1 124.25 17.844 Q 124.183 17.483 124.167 17.227 L 124.146 16.787 A 13.965 13.965 0 0 1 124.369 15.724 Q 124.604 14.777 125.002 13.623 A 1.154 1.154 0 0 0 124.93 13.585 Q 124.827 13.535 124.761 13.535 Q 122.717 14.678 120.828 18.193 Q 120.523 18.45 120.313 18.519 A 0.464 0.464 0 0 1 120.168 18.545 L 120.037 18.545 A 0.58 0.58 0 0 1 119.574 18.318 Q 119.475 18.199 119.399 18.018 L 119.377 17.842 A 0.902 0.902 0 0 1 119.376 17.789 Q 119.376 17.208 120.102 16.373 A 8.131 8.131 0 0 1 120.542 15.908 A 0.111 0.111 0 0 1 120.541 15.894 Q 120.539 15.733 120.86 14.836 A 39.585 39.585 0 0 1 120.981 14.502 L 120.894 13.447 A 0.153 0.153 0 0 0 120.82 13.322 Q 120.697 13.233 120.367 13.197 A 3.54 3.54 0 0 0 120.212 13.184 A 5.726 5.726 0 0 0 118.726 13.945 Q 116.513 15.459 113.445 19.512 A 13.488 13.488 0 0 1 113.19 20.215 Q 112.801 21.197 112.447 21.493 A 0.471 0.471 0 0 1 112.148 21.621 L 111.995 21.621 A 1.704 1.704 0 0 1 111.632 21.494 Q 111.42 21.39 111.295 21.233 A 0.855 0.855 0 0 1 111.116 20.742 Q 113.093 17.798 113.577 14.766 Q 113.257 13.368 113.518 12.796 A 0.674 0.674 0 0 1 113.73 12.524 L 114.521 12.524 L 115.049 13.25 Q 114.905 15.145 114.915 15.437 A 0.439 0.439 0 0 0 114.917 15.469 L 114.917 15.557 L 115.071 15.557 A 23.099 23.099 0 0 1 115.896 14.612 Q 116.802 13.634 117.543 13.114 A 4.738 4.738 0 0 1 117.993 12.832 A 0.053 0.053 0 0 1 117.993 12.827 Q 117.993 12.638 119.307 12.14 A 28.543 28.543 0 0 1 119.817 11.953 L 120.278 11.953 A 1.931 1.931 0 0 1 121.736 12.616 Q 121.988 12.887 122.204 13.269 A 4.853 4.853 0 0 1 122.344 13.535 L 122.41 13.535 A 30.746 30.746 0 0 1 123.211 12.908 Q 124.417 11.998 125.042 11.768 A 1.068 1.068 0 0 1 125.398 11.689 A 2.523 2.523 0 0 1 125.859 11.877 Q 126.103 12.009 126.257 12.183 A 1.035 1.035 0 0 1 126.519 12.832 Q 125.592 15.716 125.592 16.978 A 3.014 3.014 0 0 0 125.596 17.139 Z M 89.385 2.966 L 89.824 2.878 Q 90.622 2.878 91.076 3.836 A 3.86 3.86 0 0 1 91.252 4.285 A 7.063 7.063 0 0 1 90.681 7.013 Q 90.29 7.952 89.633 8.9 A 12.75 12.75 0 0 1 89.495 9.097 Q 89.231 9.998 85.803 12.964 L 85.803 13.052 Q 86.295 13.614 86.394 14.036 A 0.89 0.89 0 0 1 86.418 14.238 L 86.418 15.908 A 8.369 8.369 0 0 0 87.133 16.124 Q 88.182 16.386 88.918 16.225 A 2.022 2.022 0 0 0 89.495 16.007 Q 90.247 15.576 91.1 14.748 A 15.647 15.647 0 0 0 91.802 14.019 A 124.97 124.97 0 0 1 92.044 13.735 Q 92.755 12.909 92.862 12.821 A 0.041 0.041 0 0 1 92.878 12.81 L 92.878 12.634 L 93.274 12.634 L 93.274 13.381 A 33.025 33.025 0 0 1 92.678 14.522 Q 92.116 15.544 91.637 16.2 A 7.266 7.266 0 0 1 91.351 16.567 A 4.642 4.642 0 0 1 89.461 17.917 A 5.581 5.581 0 0 1 89.22 18.007 Q 87.959 18.441 86.238 17.905 A 8.411 8.411 0 0 1 86.111 17.864 L 85.979 17.864 A 1.403 1.403 0 0 1 85.954 18.067 Q 85.801 18.942 84.736 22.988 A 561.623 561.623 0 0 1 84.353 24.434 A 5.578 5.578 0 0 1 84.14 25.042 Q 83.723 26.077 82.645 28.116 A 117.627 117.627 0 0 1 81.87 29.553 A 7.302 7.302 0 0 1 81.347 29.919 Q 80.815 30.253 80.403 30.349 A 1.38 1.38 0 0 1 80.09 30.388 A 2.776 2.776 0 0 1 79.29 29.954 Q 78.624 29.421 78.526 28.501 A 3.108 3.108 0 0 1 78.508 28.169 A 4.131 4.131 0 0 1 78.519 27.889 Q 78.552 27.411 78.684 26.587 Q 78.614 26.203 78.6 25.972 A 1.784 1.784 0 0 1 78.596 25.862 Q 79.125 23.332 79.897 20.217 A 225.679 225.679 0 0 1 80.156 19.182 L 80.75 17.073 L 80.662 16.897 A 9.236 9.236 0 0 1 81.161 15.388 A 7.628 7.628 0 0 1 81.628 14.48 L 81.628 14.414 A 6.48 6.48 0 0 1 81.606 14.183 Q 81.531 13.243 81.824 12.991 A 0.393 0.393 0 0 1 82.09 12.898 A 0.077 0.077 0 0 0 82.128 12.876 Q 82.243 12.779 82.637 12.249 A 26.279 26.279 0 0 0 82.661 12.217 L 82.573 12.041 Q 83.694 9.602 84.287 9.075 A 9.042 9.042 0 0 1 84.48 8.462 Q 84.908 7.273 85.408 7.273 L 85.408 7.229 Q 85.329 7.071 85.321 6.931 A 0.551 0.551 0 0 1 85.32 6.899 Q 87.457 3.685 88.816 3.098 A 1.44 1.44 0 0 1 89.385 2.966 Z M 69.478 12.788 L 69.5 12.942 A 1.782 1.782 0 0 1 69.507 13.103 Q 69.507 13.75 69.038 14.414 L 69.038 14.502 L 69.104 14.502 Q 70.862 12.634 71.785 12.459 A 0.058 0.058 0 0 1 71.784 12.45 Q 71.784 12.31 72.427 12.001 A 9.34 9.34 0 0 1 72.576 11.931 L 73.103 11.931 Q 74.709 11.931 74.998 13.737 A 4.681 4.681 0 0 1 75.037 14.041 A 6.125 6.125 0 0 0 74.954 14.203 Q 74.831 14.458 74.803 14.59 A 0.328 0.328 0 0 0 74.795 14.656 L 74.883 14.81 Q 74.352 16.806 74.396 17.468 A 1.201 1.201 0 0 0 74.399 17.512 L 74.443 18.062 A 0.156 0.156 0 0 0 74.477 18.128 Q 74.539 18.205 74.707 18.281 L 74.861 18.281 Q 77.036 17.732 78.816 16.326 A 21.592 21.592 0 0 0 79.832 15.475 Q 80.793 14.614 81.331 13.876 A 6.032 6.032 0 0 0 81.387 13.799 A 8.253 8.253 0 0 1 81.574 13.565 Q 81.874 13.206 82.059 13.088 A 0.427 0.427 0 0 1 82.156 13.041 A 0.522 0.522 0 0 1 82.252 13.019 Q 82.406 13.001 82.54 13.088 A 0.565 0.565 0 0 1 82.595 13.129 A 0.161 0.161 0 0 1 82.648 13.221 Q 82.699 13.45 82.332 14.063 A 22.695 22.695 0 0 1 81.382 15.43 Q 80.596 16.473 79.827 17.194 Q 78.596 18.347 76.838 19.336 Q 76.333 19.644 75.234 19.863 Q 72.861 19.622 72.708 18.127 A 0.387 0.387 0 0 1 72.677 18.06 Q 72.635 17.945 72.604 17.716 A 4.499 4.499 0 0 1 72.598 17.666 A 0.69 0.69 0 0 1 72.595 17.615 Q 72.591 17.039 73.297 14.383 A 106.581 106.581 0 0 1 73.389 14.041 L 73.323 13.447 Q 73.304 13.314 73.186 13.296 A 0.259 0.259 0 0 0 73.147 13.293 L 72.861 13.293 A 22.577 22.577 0 0 0 71.382 14.475 A 29.007 29.007 0 0 0 70.203 15.557 A 0.108 0.108 0 0 0 70.145 15.586 Q 70.015 15.69 69.683 16.159 A 18.092 18.092 0 0 0 69.521 16.392 Q 69.214 16.501 68.181 18.193 A 0.26 0.26 0 0 0 68.045 18.292 Q 67.839 18.546 67.645 19.427 A 11.526 11.526 0 0 0 67.632 19.49 A 35.885 35.885 0 0 1 67.422 19.873 Q 66.854 20.894 66.608 21.149 A 0.352 0.352 0 0 1 66.511 21.226 A 0.028 0.028 0 0 1 66.513 21.234 Q 66.513 21.297 66.226 21.379 A 3.111 3.111 0 0 1 65.81 21.267 Q 65.354 21.105 65.182 20.832 A 0.667 0.667 0 0 1 65.083 20.544 L 65.083 20.479 Q 65.222 19.03 66.132 16.738 A 32.113 32.113 0 0 1 66.335 16.238 A 19.73 19.73 0 0 0 67.329 14.206 A 25.459 25.459 0 0 0 68.005 12.415 Q 68.273 12.181 68.464 12.125 A 0.402 0.402 0 0 1 68.577 12.107 A 1.807 1.807 0 0 1 68.907 12.161 Q 69.443 12.305 69.478 12.788 Z M 198.347 12.788 L 198.369 12.942 A 1.782 1.782 0 0 1 198.376 13.103 Q 198.376 13.75 197.908 14.414 L 197.908 14.502 L 197.974 14.502 Q 199.731 12.634 200.654 12.459 A 0.058 0.058 0 0 1 200.654 12.45 Q 200.654 12.31 201.297 12.001 A 9.34 9.34 0 0 1 201.445 11.931 L 201.973 11.931 Q 203.579 11.931 203.868 13.737 A 4.681 4.681 0 0 1 203.906 14.041 A 6.125 6.125 0 0 0 203.824 14.203 Q 203.7 14.458 203.672 14.59 A 0.328 0.328 0 0 0 203.665 14.656 L 203.752 14.81 Q 203.222 16.806 203.265 17.468 A 1.201 1.201 0 0 0 203.269 17.512 L 203.313 18.062 A 0.156 0.156 0 0 0 203.347 18.128 Q 203.409 18.205 203.577 18.281 L 203.73 18.281 Q 205.906 17.732 207.686 16.326 A 21.592 21.592 0 0 0 208.701 15.475 Q 209.662 14.614 210.201 13.876 A 6.032 6.032 0 0 0 210.256 13.799 A 8.253 8.253 0 0 1 210.444 13.565 Q 210.743 13.206 210.928 13.088 A 0.427 0.427 0 0 1 211.025 13.041 A 0.522 0.522 0 0 1 211.122 13.019 Q 211.275 13.001 211.409 13.088 A 0.565 0.565 0 0 1 211.465 13.129 A 0.161 0.161 0 0 1 211.518 13.221 Q 211.569 13.45 211.201 14.063 A 22.695 22.695 0 0 1 210.252 15.43 Q 209.465 16.473 208.696 17.194 Q 207.466 18.347 205.708 19.336 Q 205.203 19.644 204.104 19.863 Q 201.731 19.622 201.577 18.127 A 0.387 0.387 0 0 1 201.547 18.06 Q 201.505 17.945 201.474 17.716 A 4.499 4.499 0 0 1 201.467 17.666 A 0.69 0.69 0 0 1 201.465 17.615 Q 201.46 17.039 202.167 14.383 A 106.581 106.581 0 0 1 202.258 14.041 L 202.192 13.447 Q 202.173 13.314 202.056 13.296 A 0.259 0.259 0 0 0 202.017 13.293 L 201.731 13.293 A 22.577 22.577 0 0 0 200.252 14.475 A 29.007 29.007 0 0 0 199.072 15.557 A 0.108 0.108 0 0 0 199.015 15.586 Q 198.885 15.69 198.553 16.159 A 18.092 18.092 0 0 0 198.391 16.392 Q 198.083 16.501 197.051 18.193 A 0.26 0.26 0 0 0 196.915 18.292 Q 196.709 18.546 196.515 19.427 A 11.526 11.526 0 0 0 196.501 19.49 A 35.885 35.885 0 0 1 196.292 19.873 Q 195.723 20.894 195.477 21.149 A 0.352 0.352 0 0 1 195.381 21.226 A 0.028 0.028 0 0 1 195.382 21.234 Q 195.382 21.297 195.095 21.379 A 3.111 3.111 0 0 1 194.679 21.267 Q 194.223 21.105 194.052 20.832 A 0.667 0.667 0 0 1 193.953 20.544 L 193.953 20.479 Q 194.092 19.03 195.001 16.738 A 32.113 32.113 0 0 1 195.205 16.238 A 19.73 19.73 0 0 0 196.198 14.206 A 25.459 25.459 0 0 0 196.875 12.415 Q 197.142 12.181 197.333 12.125 A 0.402 0.402 0 0 1 197.446 12.107 A 1.807 1.807 0 0 1 197.777 12.161 Q 198.313 12.305 198.347 12.788 Z M 16.985 15.579 L 16.985 15.667 L 16.831 15.579 L 16.765 15.579 Q 15.029 15.864 15.029 16.062 A 111.694 111.694 0 0 0 13.43 18.799 Q 12.027 21.272 10.393 24.39 A 31.545 31.545 0 0 0 15.732 26.587 A 0.618 0.618 0 0 0 15.886 26.667 Q 16.357 26.855 18.018 27.158 A 0.177 0.177 0 0 0 18.077 27.185 Q 18.419 27.293 20.61 27.62 A 20.86 20.86 0 0 1 20.755 27.59 Q 21.04 27.532 21.094 27.532 A 11.812 11.812 0 0 1 21.439 27.608 Q 21.916 27.721 22.125 27.824 A 0.726 0.726 0 0 1 22.192 27.861 L 22.5 27.708 L 23.928 27.861 A 72.942 72.942 0 0 0 26.067 27.609 Q 29.454 27.155 30.968 26.548 A 4.091 4.091 0 0 0 31.641 26.213 A 9.906 9.906 0 0 0 32.985 25.524 Q 34.17 24.789 34.783 23.84 A 1.111 1.111 0 0 0 35.078 23.534 Q 35.536 22.875 35.969 21.094 A 34.928 34.928 0 0 0 35.717 20.439 Q 35.454 19.78 35.244 19.348 A 6.618 6.618 0 0 0 35.09 19.05 A 1.378 1.378 0 0 1 34.921 18.911 Q 34.573 18.585 33.904 17.71 Q 33.442 17.227 33.135 17.227 A 2.838 2.838 0 0 1 32.723 16.961 Q 32.506 16.791 32.359 16.594 A 1.58 1.58 0 0 1 32.256 16.436 A 1.143 1.143 0 0 1 31.986 16.389 Q 31.363 16.224 29.725 15.474 A 72.725 72.725 0 0 1 28.96 15.117 A 2.255 2.255 0 0 1 28.572 15.078 Q 27.967 14.971 26.982 14.568 A 0.307 0.307 0 0 0 26.917 14.576 Q 26.854 14.59 26.774 14.628 A 1.071 1.071 0 0 0 26.763 14.634 Q 25.577 14.412 24.664 14.35 A 9.901 9.901 0 0 0 23.994 14.326 A 288.289 288.289 0 0 1 23.107 14.512 Q 20.185 15.117 19.819 15.117 A 0.524 0.524 0 0 0 19.573 15.032 A 0.659 0.659 0 0 0 19.512 15.029 A 0.201 0.201 0 0 1 19.386 15.186 Q 19.025 15.397 17.621 15.528 A 27.952 27.952 0 0 1 16.985 15.579 Z M 106.853 18.809 L 107.227 18.809 Q 109.226 18.171 113.313 13.711 A 1.185 1.185 0 0 0 113.603 13.619 Q 113.933 13.46 113.984 13.104 A 0.97 0.97 0 0 0 113.994 12.964 A 0.275 0.275 0 0 1 114.01 12.902 Q 114.042 12.82 114.128 12.811 A 0.205 0.205 0 0 1 114.148 12.81 L 114.214 12.81 A 0.133 0.133 0 0 1 114.289 12.836 Q 114.338 12.87 114.387 12.947 A 0.945 0.945 0 0 1 114.434 13.03 L 114.434 13.25 Q 114.434 13.546 113.854 14.298 A 12.133 12.133 0 0 1 113.621 14.59 Q 113.334 15.489 111.366 17.503 A 43.652 43.652 0 0 1 110.742 18.127 A 12.459 12.459 0 0 1 109.148 19.367 A 9.132 9.132 0 0 1 107.292 20.303 L 107.007 20.303 Q 105.251 20.303 104.679 18.879 A 2.865 2.865 0 0 1 104.678 18.875 Q 104.678 18.715 104.643 18.671 A 0.039 0.039 0 0 0 104.612 18.655 A 1.543 1.543 0 0 1 104.636 18.561 Q 104.694 18.369 104.766 18.369 L 104.678 18.215 L 104.678 17.688 A 4.246 4.246 0 0 1 104.942 16.812 Q 105.306 15.924 106.108 14.744 A 24.675 24.675 0 0 1 106.787 13.799 Q 106.787 13.647 107.329 12.986 A 18.443 18.443 0 0 1 107.512 12.766 Q 107.887 12.07 107.957 11.765 A 0.547 0.547 0 0 0 107.974 11.646 L 107.974 11.558 L 107.666 11.558 Q 105.886 12.546 104.458 12.546 L 104.392 12.546 A 0.081 0.081 0 0 0 104.354 12.57 Q 104.164 12.733 103.184 14.041 A 1.312 1.312 0 0 1 103.016 14.118 Q 102.871 14.172 102.744 14.172 L 102.678 14.172 Q 102.283 14.172 101.997 13.579 A 0.671 0.671 0 0 1 102.103 13.295 Q 102.231 13.093 102.508 12.885 A 3.269 3.269 0 0 1 102.678 12.766 A 0.38 0.38 0 0 1 102.689 12.681 Q 102.709 12.596 102.764 12.482 A 2.018 2.018 0 0 1 102.81 12.393 L 102.305 11.799 L 102.305 11.711 A 0.706 0.706 0 0 1 102.455 11.282 Q 102.536 11.174 102.659 11.074 A 1.788 1.788 0 0 1 102.81 10.964 L 103.337 10.964 L 104.458 10.679 L 104.985 11.052 Q 106.957 10.592 108.121 10.066 A 8.583 8.583 0 0 0 108.127 10.063 A 2.63 2.63 0 0 0 108.721 9.998 Q 109.182 9.998 109.622 11.118 A 1.632 1.632 0 0 1 109.523 11.605 Q 109.135 12.777 107.227 15.667 A 13.416 13.416 0 0 0 106.834 16.587 Q 106.414 17.693 106.414 18.435 A 0.451 0.451 0 0 0 106.439 18.594 Q 106.52 18.809 106.853 18.809 Z M 169.761 10.217 L 170.09 10.217 A 3.024 3.024 0 0 1 170.613 10.327 Q 170.875 10.409 171.058 10.537 A 0.947 0.947 0 0 1 171.475 11.36 L 171.475 11.558 A 9.875 9.875 0 0 1 171.242 12.327 Q 170.826 13.509 170.293 13.756 A 0.684 0.684 0 0 1 170.002 13.821 A 0.929 0.929 0 0 1 169.21 13.422 Q 169.098 13.269 169.017 13.057 A 2.164 2.164 0 0 1 168.992 12.986 A 25.706 25.706 0 0 0 169.104 12.65 Q 169.309 12.019 169.321 11.84 A 0.305 0.305 0 0 0 169.321 11.821 Q 168.574 12.019 165.806 14.832 Q 164.897 16.627 164.862 17.082 A 0.449 0.449 0 0 0 164.861 17.117 L 164.861 17.754 A 0.643 0.643 0 0 0 165.226 18.332 Q 165.711 18.611 166.838 18.611 A 12.424 12.424 0 0 0 171.036 17.235 A 11.095 11.095 0 0 0 174.639 14.041 Q 174.924 14.041 176.199 12.832 L 176.484 12.832 L 176.616 13.777 A 0.181 0.181 0 0 0 176.52 13.831 Q 176.247 14.065 175.408 15.315 A 0.253 0.253 0 0 0 175.285 15.373 Q 174.998 15.577 174.21 16.504 A 43.315 43.315 0 0 0 173.826 16.963 A 10.95 10.95 0 0 1 170.581 19.311 A 9.894 9.894 0 0 1 166.531 20.215 L 166.113 20.215 A 3.488 3.488 0 0 1 164.816 19.988 Q 163.867 19.611 163.353 18.604 A 4.646 4.646 0 0 1 163.015 17.71 L 163.015 17.446 Q 163.015 15.359 165.476 13.14 A 51.115 51.115 0 0 1 166.651 12.147 Q 168.948 10.269 169.72 10.219 A 0.635 0.635 0 0 1 169.761 10.217 Z M 137.988 16.963 L 137.988 17.227 Q 138.127 17.849 138.32 17.982 A 0.189 0.189 0 0 0 138.428 18.018 L 138.955 18.018 A 1.594 1.594 0 0 0 139.636 17.828 Q 140.63 17.342 142.246 15.613 A 34.753 34.753 0 0 0 143.086 14.678 A 0.234 0.234 0 0 1 143.139 14.553 Q 143.315 14.304 144.083 13.78 A 18.749 18.749 0 0 1 144.316 13.623 Q 144.492 12.986 145.02 12.656 L 145.107 12.656 Q 145.107 12.856 145.227 13.085 A 1.605 1.605 0 0 0 145.283 13.184 A 9.718 9.718 0 0 1 143.723 16.04 Q 140.876 19.765 138.884 19.861 A 2.177 2.177 0 0 1 138.779 19.863 Q 136.988 19.863 136.087 17.827 A 6.159 6.159 0 0 1 136.055 17.754 L 136.055 17.578 L 135.791 17.578 A 23.745 23.745 0 0 1 134.365 18.706 Q 132.966 19.719 131.899 20.09 A 3.439 3.439 0 0 1 130.781 20.303 L 130.518 20.303 A 2.376 2.376 0 0 1 129.577 20.127 Q 128.957 19.862 128.603 19.2 A 3.4 3.4 0 0 1 128.32 18.457 L 128.32 18.281 A 3.798 3.798 0 0 1 128.827 16.454 Q 129.522 15.18 131.171 13.847 A 18.23 18.23 0 0 1 131.924 13.271 L 134.385 11.689 Q 134.385 11.406 135.731 11.272 A 14.624 14.624 0 0 1 135.967 11.25 A 1.836 1.836 0 0 1 136.633 11.386 Q 137.171 11.596 137.79 12.128 A 7.507 7.507 0 0 1 137.988 12.305 A 2.443 2.443 0 0 1 138.391 12.335 Q 139.131 12.459 139.131 13.096 A 0.127 0.127 0 0 1 139.166 13.1 Q 139.219 13.115 139.219 13.184 Q 137.988 15.403 137.988 16.963 Z M 190.217 16.963 L 190.217 17.227 Q 190.356 17.849 190.549 17.982 A 0.189 0.189 0 0 0 190.657 18.018 L 191.184 18.018 A 1.594 1.594 0 0 0 191.865 17.828 Q 192.859 17.342 194.475 15.613 A 34.753 34.753 0 0 0 195.315 14.678 A 0.234 0.234 0 0 1 195.368 14.553 Q 195.544 14.304 196.312 13.78 A 18.749 18.749 0 0 1 196.545 13.623 Q 196.721 12.986 197.249 12.656 L 197.336 12.656 Q 197.336 12.856 197.456 13.085 A 1.605 1.605 0 0 0 197.512 13.184 A 9.718 9.718 0 0 1 195.952 16.04 Q 193.105 19.765 191.113 19.861 A 2.177 2.177 0 0 1 191.008 19.863 Q 189.217 19.863 188.316 17.827 A 6.159 6.159 0 0 1 188.284 17.754 L 188.284 17.578 L 188.02 17.578 A 23.745 23.745 0 0 1 186.594 18.706 Q 185.195 19.719 184.128 20.09 A 3.439 3.439 0 0 1 183.01 20.303 L 182.747 20.303 A 2.376 2.376 0 0 1 181.806 20.127 Q 181.186 19.862 180.832 19.2 A 3.4 3.4 0 0 1 180.549 18.457 L 180.549 18.281 A 3.798 3.798 0 0 1 181.056 16.454 Q 181.751 15.18 183.4 13.847 A 18.23 18.23 0 0 1 184.153 13.271 L 186.614 11.689 Q 186.614 11.406 187.96 11.272 A 14.624 14.624 0 0 1 188.196 11.25 A 1.836 1.836 0 0 1 188.862 11.386 Q 189.4 11.596 190.019 12.128 A 7.507 7.507 0 0 1 190.217 12.305 A 2.443 2.443 0 0 1 190.62 12.335 Q 191.36 12.459 191.36 13.096 A 0.127 0.127 0 0 1 191.395 13.1 Q 191.448 13.115 191.448 13.184 Q 190.217 15.403 190.217 16.963 Z M 25.818 2.131 L 25.642 2.043 A 77.957 77.957 0 0 0 24.004 2.38 Q 22.335 2.744 21.248 3.076 Q 18.685 9.211 17.396 11.573 A 13.892 13.892 0 0 1 16.985 12.283 L 16.985 12.502 A 11.222 11.222 0 0 0 17.308 12.485 Q 17.949 12.442 18.075 12.337 A 0.072 0.072 0 0 0 18.105 12.283 L 18.655 12.349 L 19.204 12.349 A 0.794 0.794 0 0 0 19.359 12.334 A 0.602 0.602 0 0 0 19.512 12.283 A 1.324 1.324 0 0 0 19.585 12.312 Q 19.688 12.349 19.753 12.349 L 20.369 12.195 A 0.057 0.057 0 0 0 20.411 12.233 Q 20.66 12.348 22.397 12.462 A 76.696 76.696 0 0 0 23.049 12.502 A 0.828 0.828 0 0 0 23.379 12.437 L 23.84 12.502 L 24.543 12.502 A 62.74 62.74 0 0 0 28.198 11.154 Q 31.062 9.989 33.135 8.745 Q 35.487 6.871 36.344 5.352 A 4.358 4.358 0 0 0 36.672 4.636 L 36.738 4.175 L 36.672 4.021 A 1.324 1.324 0 0 0 36.701 3.948 Q 36.738 3.845 36.738 3.779 A 0.725 0.725 0 0 0 36.531 3.308 Q 36.101 2.814 34.78 2.298 A 16.329 16.329 0 0 0 34.08 2.043 L 33.904 2.043 A 0.069 0.069 0 0 0 33.873 2.05 Q 33.844 2.064 33.839 2.11 A 0.192 0.192 0 0 0 33.838 2.131 A 1.17 1.17 0 0 0 33.544 2 Q 32.832 1.771 30.882 1.65 A 41.847 41.847 0 0 0 30.85 1.648 A 56.159 56.159 0 0 1 30.715 1.669 Q 30.292 1.733 30.219 1.736 A 0.154 0.154 0 0 1 30.212 1.736 A 5.107 5.107 0 0 0 29.929 1.684 Q 29.796 1.664 29.68 1.655 A 2.245 2.245 0 0 0 29.509 1.648 A 2.29 2.29 0 0 1 29.239 1.712 Q 28.442 1.864 25.818 2.131 Z M 40.54 12.986 L 41.243 12.195 L 41.418 12.195 A 0.826 0.826 0 0 1 41.732 12.252 Q 41.981 12.353 42.122 12.634 L 42.122 12.898 Q 40.627 15.71 40.627 17.468 L 40.627 18.435 A 1.367 1.367 0 0 0 40.678 18.818 A 0.943 0.943 0 0 0 41.155 19.402 L 41.858 19.402 A 1.824 1.824 0 0 0 42.503 19.257 Q 43.718 18.784 45.989 16.765 A 0.318 0.318 0 0 0 46.17 16.703 Q 46.343 16.584 46.516 16.238 Q 46.631 16.238 48.352 14.365 A 187.365 187.365 0 0 0 48.889 13.777 A 0.097 0.097 0 0 0 48.957 13.742 Q 49.055 13.641 49.153 13.25 Q 49.676 12.901 49.939 12.898 A 0.402 0.402 0 0 1 49.944 12.898 L 50.032 12.898 Q 50.208 12.92 50.208 13.074 Q 49.46 15.425 47.219 17.996 Q 44.975 20.145 43.282 20.806 A 4.832 4.832 0 0 1 42.737 20.984 L 41.858 21.16 Q 39.058 20.84 38.807 18.626 A 4.033 4.033 0 0 1 38.782 18.171 A 0.068 0.068 0 0 1 38.73 18.138 Q 38.655 18.04 38.606 17.644 Q 39.265 14.172 40.54 12.986 Z M 59.172 12.986 L 59.875 12.195 L 60.051 12.195 A 0.826 0.826 0 0 1 60.365 12.252 Q 60.614 12.353 60.754 12.634 L 60.754 12.898 Q 59.26 15.71 59.26 17.468 L 59.26 18.435 A 1.367 1.367 0 0 0 59.31 18.818 A 0.943 0.943 0 0 0 59.788 19.402 L 60.491 19.402 A 1.824 1.824 0 0 0 61.136 19.257 Q 62.351 18.784 64.622 16.765 A 0.318 0.318 0 0 0 64.803 16.703 Q 64.976 16.584 65.149 16.238 Q 65.264 16.238 66.984 14.365 A 187.365 187.365 0 0 0 67.522 13.777 A 0.097 0.097 0 0 0 67.59 13.742 Q 67.688 13.641 67.786 13.25 Q 68.308 12.901 68.572 12.898 A 0.402 0.402 0 0 1 68.577 12.898 L 68.665 12.898 Q 68.84 12.92 68.84 13.074 Q 68.093 15.425 65.852 17.996 Q 63.608 20.145 61.914 20.806 A 4.832 4.832 0 0 1 61.37 20.984 L 60.491 21.16 Q 57.691 20.84 57.439 18.626 A 4.033 4.033 0 0 1 57.415 18.171 A 0.068 0.068 0 0 1 57.362 18.138 Q 57.288 18.04 57.239 17.644 Q 57.898 14.172 59.172 12.986 Z M 156.555 12.986 L 157.258 12.195 L 157.434 12.195 A 0.826 0.826 0 0 1 157.747 12.252 Q 157.996 12.353 158.137 12.634 L 158.137 12.898 Q 156.643 15.71 156.643 17.468 L 156.643 18.435 A 1.367 1.367 0 0 0 156.693 18.818 A 0.943 0.943 0 0 0 157.17 19.402 L 157.874 19.402 A 1.824 1.824 0 0 0 158.518 19.257 Q 159.733 18.784 162.004 16.765 A 0.318 0.318 0 0 0 162.186 16.703 Q 162.359 16.584 162.532 16.238 Q 162.647 16.238 164.367 14.365 A 187.365 187.365 0 0 0 164.905 13.777 A 0.097 0.097 0 0 0 164.973 13.742 Q 165.071 13.641 165.168 13.25 Q 165.691 12.901 165.955 12.898 A 0.402 0.402 0 0 1 165.959 12.898 L 166.047 12.898 Q 166.223 12.92 166.223 13.074 Q 165.476 15.425 163.235 17.996 Q 160.991 20.145 159.297 20.806 A 4.832 4.832 0 0 1 158.752 20.984 L 157.874 21.16 Q 155.073 20.84 154.822 18.626 A 4.033 4.033 0 0 1 154.797 18.171 A 0.068 0.068 0 0 1 154.745 18.138 Q 154.671 18.04 154.622 17.644 Q 155.281 14.172 156.555 12.986 Z M 175.298 12.986 L 176.001 12.195 L 176.177 12.195 A 0.826 0.826 0 0 1 176.49 12.252 Q 176.739 12.353 176.88 12.634 L 176.88 12.898 Q 175.386 15.71 175.386 17.468 L 175.386 18.435 A 1.367 1.367 0 0 0 175.436 18.818 A 0.943 0.943 0 0 0 175.913 19.402 L 176.616 19.402 A 1.824 1.824 0 0 0 177.261 19.257 Q 178.476 18.784 180.747 16.765 A 0.318 0.318 0 0 0 180.928 16.703 Q 181.101 16.584 181.274 16.238 Q 181.389 16.238 183.11 14.365 A 187.365 187.365 0 0 0 183.647 13.777 A 0.097 0.097 0 0 0 183.715 13.742 Q 183.813 13.641 183.911 13.25 Q 184.434 12.901 184.697 12.898 A 0.402 0.402 0 0 1 184.702 12.898 L 184.79 12.898 Q 184.966 12.92 184.966 13.074 Q 184.219 15.425 181.978 17.996 Q 179.734 20.145 178.04 20.806 A 4.832 4.832 0 0 1 177.495 20.984 L 176.616 21.16 Q 173.816 20.84 173.565 18.626 A 4.033 4.033 0 0 1 173.54 18.171 A 0.068 0.068 0 0 1 173.488 18.138 Q 173.414 18.04 173.364 17.644 Q 174.023 14.172 175.298 12.986 Z M 147.568 23.643 L 144.558 25.928 A 14.612 14.612 0 0 0 143.462 26.967 Q 142.136 28.347 140.471 30.608 A 16.383 16.383 0 0 0 137.164 36.804 Q 136.233 40.091 137.764 39.867 A 1.771 1.771 0 0 0 137.922 39.836 Q 139.535 39.449 142.001 36.121 A 34.846 34.846 0 0 0 142.383 35.596 A 40.24 40.24 0 0 0 143.717 33.428 Q 144.891 31.364 145.409 29.75 A 11.16 11.16 0 0 0 145.503 29.443 A 3.387 3.387 0 0 0 145.879 28.875 Q 146.075 28.495 146.124 28.115 A 1.978 1.978 0 0 0 146.14 27.861 A 0.229 0.229 0 0 0 146.215 27.771 Q 146.53 27.238 147.568 23.643 Z M 51.746 11.997 L 52.031 11.931 Q 53.998 11.769 54.654 12.183 A 0.669 0.669 0 0 1 54.954 12.546 A 0.028 0.028 0 0 1 54.962 12.545 Q 55.106 12.545 55.723 13.843 Q 55.836 14.202 55.69 15.242 A 15.997 15.997 0 0 1 55.635 15.601 L 55.613 15.535 L 55.591 15.535 Q 56.04 15.441 58.511 13.58 A 121.777 121.777 0 0 0 59.436 12.876 A 4.074 4.074 0 0 1 59.683 12.731 Q 59.943 12.592 60.139 12.546 Q 60.469 13.601 56.624 16.699 A 10.369 10.369 0 0 1 55.969 17.087 Q 55.285 17.457 54.756 17.578 Q 53.547 18.821 52.762 19.451 A 6.626 6.626 0 0 1 52.295 19.797 A 2.574 2.574 0 0 0 52.101 19.859 Q 51.999 19.896 51.885 19.945 A 5.498 5.498 0 0 0 51.724 20.017 Q 50.184 20.389 49.001 19.407 A 4.334 4.334 0 0 1 48.45 18.853 A 9.646 9.646 0 0 1 48.11 18.223 A 11.989 11.989 0 0 1 47.9 17.776 A 5.813 5.813 0 0 1 47.707 16.989 Q 47.365 14.967 48.823 13.621 A 4.906 4.906 0 0 1 49.131 13.359 Q 49.654 12.714 50.689 12.36 A 6.246 6.246 0 0 1 51.262 12.195 A 0.018 0.018 0 0 1 51.261 12.189 Q 51.261 12.133 51.612 12.034 A 6.274 6.274 0 0 1 51.746 11.997 Z M 94.922 11.997 L 95.208 11.931 Q 97.174 11.769 97.83 12.183 A 0.669 0.669 0 0 1 98.13 12.546 A 0.028 0.028 0 0 1 98.139 12.545 Q 98.282 12.545 98.899 13.843 Q 99.012 14.202 98.866 15.242 A 15.997 15.997 0 0 1 98.811 15.601 L 98.789 15.535 L 98.767 15.535 Q 99.216 15.441 101.687 13.58 A 121.777 121.777 0 0 0 102.612 12.876 A 4.074 4.074 0 0 1 102.86 12.731 Q 103.119 12.592 103.315 12.546 Q 103.645 13.601 99.8 16.699 A 10.369 10.369 0 0 1 99.145 17.087 Q 98.461 17.457 97.932 17.578 Q 96.723 18.821 95.938 19.451 A 6.626 6.626 0 0 1 95.471 19.797 A 2.574 2.574 0 0 0 95.278 19.859 Q 95.176 19.896 95.062 19.945 A 5.498 5.498 0 0 0 94.9 20.017 Q 93.361 20.389 92.177 19.407 A 4.334 4.334 0 0 1 91.626 18.853 A 9.646 9.646 0 0 1 91.286 18.223 A 11.989 11.989 0 0 1 91.077 17.776 A 5.813 5.813 0 0 1 90.883 16.989 Q 90.541 14.967 91.999 13.621 A 4.906 4.906 0 0 1 92.307 13.359 Q 92.83 12.714 93.865 12.36 A 6.246 6.246 0 0 1 94.438 12.195 A 0.018 0.018 0 0 1 94.438 12.189 Q 94.438 12.133 94.788 12.034 A 6.274 6.274 0 0 1 94.922 11.997 Z M 83.21 14.875 A 3.57 3.57 0 0 0 82.889 15.451 Q 82.43 16.447 81.951 18.472 A 43.11 43.11 0 0 0 81.848 18.918 A 177.696 177.696 0 0 0 81.325 21.296 Q 80.56 24.905 80.372 26.716 A 9.868 9.868 0 0 0 80.31 27.708 A 2.638 2.638 0 0 1 80.394 28.249 A 3.058 3.058 0 0 1 80.398 28.411 Q 81.116 28.411 82.761 24.037 A 81.025 81.025 0 0 0 83.32 22.5 A 283.396 283.396 0 0 0 83.772 20.658 Q 84.321 18.385 84.564 17.169 A 27.929 27.929 0 0 0 84.617 16.897 A 11.764 11.764 0 0 1 83.761 15.791 A 9.229 9.229 0 0 1 83.21 14.875 Z M 130.254 18.018 L 130.254 18.633 Q 130.276 18.809 130.43 18.809 L 130.605 18.809 Q 132.209 18.809 134.912 16.26 A 13.885 13.885 0 0 0 135.563 15.548 Q 136.582 14.344 136.582 13.623 L 136.582 13.535 A 2.067 2.067 0 0 0 136.55 13.154 Q 136.43 12.519 135.861 12.483 A 1.109 1.109 0 0 0 135.791 12.48 A 7.366 7.366 0 0 0 134.184 13.258 Q 132.764 14.152 131.221 15.82 A 7.159 7.159 0 0 0 130.704 16.675 Q 130.466 17.143 130.345 17.588 A 3.706 3.706 0 0 0 130.254 18.018 Z M 182.483 18.018 L 182.483 18.633 Q 182.505 18.809 182.659 18.809 L 182.834 18.809 Q 184.438 18.809 187.141 16.26 A 13.885 13.885 0 0 0 187.792 15.548 Q 188.811 14.344 188.811 13.623 L 188.811 13.535 A 2.067 2.067 0 0 0 188.779 13.154 Q 188.659 12.519 188.09 12.483 A 1.109 1.109 0 0 0 188.02 12.48 A 7.366 7.366 0 0 0 186.413 13.258 Q 184.993 14.152 183.45 15.82 A 7.159 7.159 0 0 0 182.933 16.675 Q 182.695 17.143 182.574 17.588 A 3.706 3.706 0 0 0 182.483 18.018 Z M 84.485 11.843 L 84.507 11.843 A 130.153 130.153 0 0 0 85.549 10.99 Q 87.586 9.305 88.051 8.742 A 2.017 2.017 0 0 0 88.066 8.723 A 10.961 10.961 0 0 0 88.785 7.756 Q 89.626 6.472 89.626 5.471 L 89.473 5.471 L 89.626 5.164 L 89.626 4.57 A 0.055 0.055 0 0 0 89.594 4.518 Q 89.567 4.504 89.517 4.504 A 8.002 8.002 0 0 0 88.314 5.593 Q 87.778 6.179 87.266 6.929 A 16.579 16.579 0 0 0 86.66 7.888 A 93.046 93.046 0 0 0 86.15 8.695 Q 84.797 10.863 84.543 11.586 A 0.85 0.85 0 0 0 84.485 11.843 Z M 47.043 5.164 L 47.043 5.427 A 1.835 1.835 0 0 1 46.754 5.959 Q 46.183 6.728 44.631 7.818 A 26.771 26.771 0 0 1 44.143 8.152 A 10.989 10.989 0 0 1 43.572 8.479 Q 42.697 8.943 42.209 8.943 A 1.522 1.522 0 0 1 41.856 8.859 Q 41.393 8.683 41.338 8.2 A 1.199 1.199 0 0 1 41.331 8.064 A 0.576 0.576 0 0 1 41.48 7.723 Q 41.943 7.137 43.838 6.192 A 30.48 30.48 0 0 1 44.143 6.042 A 6.286 6.286 0 0 1 44.717 5.663 Q 45.288 5.326 46.077 4.988 A 178.54 178.54 0 0 0 46.294 5.029 Q 46.927 5.149 47.027 5.162 A 0.157 0.157 0 0 0 47.043 5.164 Z M 65.676 5.164 L 65.676 5.427 A 1.835 1.835 0 0 1 65.386 5.959 Q 64.816 6.728 63.264 7.818 A 26.771 26.771 0 0 1 62.776 8.152 A 10.989 10.989 0 0 1 62.204 8.479 Q 61.33 8.943 60.842 8.943 A 1.522 1.522 0 0 1 60.489 8.859 Q 60.026 8.683 59.971 8.2 A 1.199 1.199 0 0 1 59.963 8.064 A 0.576 0.576 0 0 1 60.113 7.723 Q 60.575 7.137 62.471 6.192 A 30.48 30.48 0 0 1 62.776 6.042 A 6.286 6.286 0 0 1 63.349 5.663 Q 63.921 5.326 64.709 4.988 A 178.54 178.54 0 0 0 64.926 5.029 Q 65.56 5.149 65.66 5.162 A 0.157 0.157 0 0 0 65.676 5.164 Z M 163.059 5.164 L 163.059 5.427 A 1.835 1.835 0 0 1 162.769 5.959 Q 162.199 6.728 160.647 7.818 A 26.771 26.771 0 0 1 160.159 8.152 A 10.989 10.989 0 0 1 159.587 8.479 Q 158.713 8.943 158.225 8.943 A 1.522 1.522 0 0 1 157.872 8.859 Q 157.409 8.683 157.354 8.2 A 1.199 1.199 0 0 1 157.346 8.064 A 0.576 0.576 0 0 1 157.496 7.723 Q 157.958 7.137 159.854 6.192 A 30.48 30.48 0 0 1 160.159 6.042 A 6.286 6.286 0 0 1 160.732 5.663 Q 161.304 5.326 162.092 4.988 A 178.54 178.54 0 0 0 162.309 5.029 Q 162.943 5.149 163.043 5.162 A 0.157 0.157 0 0 0 163.059 5.164 Z M 181.802 5.164 L 181.802 5.427 A 1.835 1.835 0 0 1 181.512 5.959 Q 180.942 6.728 179.389 7.818 A 26.771 26.771 0 0 1 178.901 8.152 A 10.989 10.989 0 0 1 178.33 8.479 Q 177.456 8.943 176.968 8.943 A 1.522 1.522 0 0 1 176.615 8.859 Q 176.151 8.683 176.096 8.2 A 1.199 1.199 0 0 1 176.089 8.064 A 0.576 0.576 0 0 1 176.238 7.723 Q 176.701 7.137 178.596 6.192 A 30.48 30.48 0 0 1 178.901 6.042 A 6.286 6.286 0 0 1 179.475 5.663 Q 180.047 5.326 180.835 4.988 A 178.54 178.54 0 0 0 181.052 5.029 Q 181.686 5.149 181.785 5.162 A 0.157 0.157 0 0 0 181.802 5.164 Z M 144.47 16.128 L 144.47 16.875 A 0.334 0.334 0 0 0 144.66 17.077 Q 144.79 17.136 144.999 17.139 A 1.57 1.57 0 0 0 145.02 17.139 L 145.679 17.139 A 9.103 9.103 0 0 0 148.931 13.887 L 148.843 13.052 L 148.931 12.393 L 148.557 12.393 A 4.113 4.113 0 0 0 147.225 12.896 Q 146.188 13.491 145.088 14.726 A 15.213 15.213 0 0 0 144.844 15.007 Q 144.529 15.599 144.48 15.989 A 1.1 1.1 0 0 0 144.47 16.128 Z M 49.307 16.985 L 49.373 17.183 Q 49.754 18.426 50.244 18.626 A 0.523 0.523 0 0 0 50.339 18.655 A 1.246 1.246 0 0 0 50.559 18.694 Q 50.853 18.721 51.232 18.634 A 3.469 3.469 0 0 0 51.328 18.611 A 17.091 17.091 0 0 0 51.742 18.355 Q 52.524 17.855 52.618 17.638 A 0.191 0.191 0 0 0 52.625 17.622 L 52.625 17.644 Q 50.559 16.699 50.098 15.293 Q 50.032 15.315 49.967 15.076 A 1.89 1.89 0 0 1 49.966 15.073 Q 49.944 14.59 49.878 14.326 L 49.856 14.326 A 4.214 4.214 0 0 0 49.444 15.035 Q 49.181 15.622 49.181 16.197 A 2.557 2.557 0 0 0 49.307 16.985 Z M 92.483 16.985 L 92.549 17.183 Q 92.93 18.426 93.421 18.626 A 0.523 0.523 0 0 0 93.516 18.655 A 1.246 1.246 0 0 0 93.735 18.694 Q 94.029 18.721 94.408 18.634 A 3.469 3.469 0 0 0 94.504 18.611 A 17.091 17.091 0 0 0 94.918 18.355 Q 95.7 17.855 95.795 17.638 A 0.191 0.191 0 0 0 95.801 17.622 L 95.801 17.644 Q 93.735 16.699 93.274 15.293 Q 93.208 15.315 93.143 15.076 A 1.89 1.89 0 0 1 93.142 15.073 Q 93.12 14.59 93.054 14.326 L 93.032 14.326 A 4.214 4.214 0 0 0 92.621 15.035 Q 92.357 15.622 92.357 16.197 A 2.557 2.557 0 0 0 92.483 16.985 Z M 53.591 16.238 L 53.811 16.194 A 3.864 3.864 0 0 0 54.188 15.576 Q 54.477 14.974 54.448 14.392 A 4.82 4.82 0 0 0 54.228 13.91 Q 53.783 13.073 53.229 13.073 A 0.789 0.789 0 0 0 53.042 13.096 Q 52.998 12.964 52.778 13.03 A 2.609 2.609 0 0 0 52.268 13.208 Q 51.261 13.694 51.658 14.919 A 3.959 3.959 0 0 0 51.962 15.485 Q 52.592 16.441 53.508 16.257 A 1.705 1.705 0 0 0 53.591 16.238 Z M 96.768 16.238 L 96.987 16.194 A 3.864 3.864 0 0 0 97.365 15.576 Q 97.654 14.974 97.625 14.392 A 4.82 4.82 0 0 0 97.405 13.91 Q 96.959 13.073 96.405 13.073 A 0.789 0.789 0 0 0 96.218 13.096 Q 96.174 12.964 95.955 13.03 A 2.609 2.609 0 0 0 95.445 13.208 Q 94.438 13.694 94.834 14.919 A 3.959 3.959 0 0 0 95.139 15.485 Q 95.769 16.441 96.684 16.257 A 1.705 1.705 0 0 0 96.768 16.238 Z M 11.799 18.567 L 11.799 18.721 L 12.041 18.721 A 0.212 0.212 0 0 1 12.045 18.682 Q 12.057 18.619 12.102 18.511 A 2.096 2.096 0 0 1 12.107 18.501 L 11.953 18.413 A 0.275 0.275 0 0 0 11.891 18.429 Q 11.809 18.461 11.8 18.547 A 0.205 0.205 0 0 0 11.799 18.567 Z M 10.305 21.643 L 10.151 21.643 L 10.151 21.951 L 10.305 21.951 L 10.305 21.643 Z M 0 37.134 L 0 36.914 L 0.242 36.914 L 0.242 37.134 L 0 37.134 Z M 5.977 28.718 L 6.064 28.564 L 6.064 28.411 L 5.977 28.411 A 0.275 0.275 0 0 0 5.915 28.426 Q 5.832 28.459 5.824 28.544 A 0.205 0.205 0 0 0 5.823 28.564 A 0.275 0.275 0 0 0 5.838 28.626 Q 5.871 28.709 5.956 28.717 A 0.205 0.205 0 0 0 5.977 28.718 Z M 175.935 13.711 L 176.133 13.403 L 176.133 13.447 L 176.155 13.447 A 0.041 0.041 0 0 0 176.132 13.457 Q 176.08 13.496 175.957 13.689 A 0.032 0.032 0 0 1 175.956 13.698 Q 175.952 13.711 175.935 13.711 Z M 11.404 19.05 L 11.404 18.875 L 11.558 18.875 L 11.558 19.05 L 11.404 19.05 Z M 2.593 33.442 L 2.593 33.289 L 2.681 33.289 L 2.681 33.442 L 2.593 33.442 Z" vector-effect="non-scaling-stroke"/></g></svg>